# xmcd
#
# Track frame offsets:
#	150
#	24043
#	40982
#	57095
#	75968
#	91154
#	104421
#	117336
#	131709
#	141096
#	152237
#	164287
#	177105
#	191027
#	196004
#	210395
#	219560
#	229925
#	240024
#	247612
#
# Disc length: 3516 seconds
#
# Revision: 1
# Processed by: cddbd v1.5.2PL0 Copyright (c) Steve Scherf et al.
# Submitted via: audiograbber 1.83.01
#
DISCID=f50dba14
DTITLE=diverse - TRUCKERS COUNTRY 
DYEAR=2008
DGENRE=Country
TTITLE0=1. Six days on the road
TTITLE1=2. I let my mind wonder
TTITLE2=3. The devil went down to Georgia
TTITLE3=4. I want to be with you tonight
TTITLE4=5. Home again in my heart
TTITLE5=6. 500 miles away from home
TTITLE6=7. Ruby don't take your love to town
TTITLE7=8. Duelling banjo's
TTITLE8=9. Dear hearts and gentle people
TTITLE9=10. Just out of reach
TTITLE10=11. Truck stop honky tonk lady
TTITLE11=12. Behind closed doors
TTITLE12=13. My toot toot
TTITLE13=14. You are a good girl
TTITLE14=15. Cajun accordeon man
TTITLE15=16. Jalapeno lady
TTITLE16=17. White lightning
TTITLE17=18. On the road again
TTITLE18=19. Down on the corner of love
TTITLE19=20. North of the border
EXTD=
EXTT0=
EXTT1=
EXTT2=
EXTT3=
EXTT4=
EXTT5=
EXTT6=
EXTT7=
EXTT8=
EXTT9=
EXTT10=
EXTT11=
EXTT12=
EXTT13=
EXTT14=
EXTT15=
EXTT16=
EXTT17=
EXTT18=
EXTT19=
PLAYORDER=
